#N canvas 90 37 1241 841 12;
#X declare -lib ceammc;
#X obj 1 1 cnv 5 765 40 empty empty MeMomento 20 20 0 20 -104026 -4096
0;
#X obj 50 251 hoa/hoa.soundrone;
#X obj 280 251 phasor~ 0.15;
#X obj 443 251 ui.sliders @size 200 55 @receive "(null)" @send "(null)"
@pinned 0 @presetname "ui.sliders.0" @mouse_events 0 @background_color
0.93 0.93 0.93 1 @border_color 0.6 0.6 0.6 1 @label_color 0 0 0 1 @slider_color
0.75 0.75 0.75 1 @select_color 0 0.75 1 1 @fontname "Helvetica" @fontweight
"normal" @fontslant "roman" @fontsize 11 @label "(null)" @label_inner
0 @label_side "top" @label_align "left" @label_valign "top" @label_margins
0 0 @min -60 @max 0 @count 11 @auto_range 0 @show_range 1;
#X obj 50 280 ui.gain~ @size 120 14 @receive "(null)" @send "(null)"
@pinned 0 @presetname "ui.gain~.0" @mouse_events 0 @background_color
0.93 0.93 0.93 1 @border_color 0.6 0.6 0.6 1 @label_color 0 0 0 1 @knob_color
0 0.75 1 1 @fontname "Helvetica" @fontweight "normal" @fontslant "roman"
@fontsize 11 @label "(null)" @label_inner 0 @label_side "top" @label_align
"left" @label_valign "top" @label_margins 0 0 @max 0 @min -60 @output_value
0 @relative 1 @midi_channel 0 @midi_control 0 @midi_pickup 1 @show_range
1;
#X obj 280 280 phase->rad~;
#X obj 443 309 msg #: @db;
#X text 597 309 spread;
#X text 50 654 multiple [osc~];
#X obj 414 654 hoa.process~.dsp;
#X msg 50 683 60 90 2.1;
#X msg 165 683 50 120 4.1;
#X obj 50 712 list.seq;
#X obj 50 741 list.each;
#X obj 184 741 mtof;
#X obj 50 770 msg #:;
#X obj 50 799 hoa.process~ 11 hoa/hoa.syn.osc~ planewaves, f 45;
#X obj 50 827 pan.spread~ 11, f 45;
#X obj 50 856 ui.gain2~ @size 318 15 @receive "(null)" @send "(null)"
@pinned 0 @presetname "ui.gain2~.0" @mouse_events 0 @background_color
0.93 0.93 0.93 1 @border_color 0.6 0.6 0.6 1 @label_color 0 0 0 1 @knob_color
0 0.75 1 1 @fontname "Helvetica" @fontweight "normal" @fontslant "roman"
@fontsize 11 @label "(null)" @label_inner 0 @label_side "top" @label_align
"left" @label_valign "top" @label_margins 0 0 @max 0 @min -60 @output_value
0 @relative 1 @midi_channel 0 @midi_control 0 @midi_pickup 1 @show_range
1;
#X obj 50 885 dac~, f 45;
#X obj 50 914 ui.dsp~ @size 30 30 @receive "(null)" @send "(null)"
@pinned 0 @background_color 0.93 0.93 0.93 1 @border_color 0.6 0.6
0.6 1 @label_color 0 0 0 1 @active_color 0 0.75 1 1 @fontname "Helvetica"
@fontweight "normal" @fontslant "roman" @fontsize 11 @label "(null)"
@label_inner 0 @label_side "top" @label_align "left" @label_valign
"top" @label_margins 0 0;
#X obj 20 963 cnv 1 745 1 empty empty empty 17 7 0 10 -203890 -1 0
;
#X obj 20 968 cnv 5 90 26 empty empty arguments: 4 10 0 14 -262144
-49933 0;
#X text 110 1003 1;
#X text 150 1003 int;
#X obj 246 1004 cnv 1 47 20 empty empty empty 17 7 0 10 -245695 -1
0;
#X text 245 1003 ORDER: the order of decomposition. Range: 1...63;
#X text 110 1023 2;
#X text 150 1023 symbol;
#X obj 246 1024 cnv 1 46 20 empty empty empty 17 7 0 10 -245695 -1
0;
#X text 245 1023 PNAME: patch name.;
#X text 110 1043 3;
#X text 150 1043 symbol;
#X obj 246 1044 cnv 1 54 20 empty empty empty 17 7 0 10 -245695 -1
0;
#X text 245 1043 DOMAIN: process domain: harmonics or planewaves.;
#X obj 20 1073 cnv 1 745 1 empty empty empty 17 7 0 10 -203890 -1 0
;
#X obj 20 1078 cnv 5 98 26 empty empty properties: 4 10 0 14 -262144
-49933 0;
#X msg 110 1113 @domain;
#X text 245 1113 (readonly) Get process domain: harmonics or planewaves.
Type: symbol. Default value: harmonics. Allowed values: harmonics \,
planewaves.;
#X msg 110 1170 @n;
#X text 245 1170 (readonly) Get the order of decomposition/number of
planewaves. Type: int. Default value: 0 Range: 0...63.;
#X obj 20 1222 cnv 1 745 1 empty empty empty 17 7 0 10 -203890 -1 0
;
#X obj 20 1227 cnv 5 73 26 empty empty methods: 4 10 0 14 -262144 -49933
0;
#X msg 110 1262 on;
#X text 245 1262 switch on/off DSP instance processing. Usage: on all
0|1 - turn on/off all instances \, on IDX 0|1 - turn on/off specified
instance.;
#X msg 110 1317 open;
#X text 245 1317 open Pd window for specified instance. Arguments are:
;
#X obj 255 1340 cnv 1 29 23 empty empty empty 17 7 0 10 -245695 -1
0;
#X text 255 1340 IDX: instance index. Type: int.;
#X msg 110 1365 dump;
#X text 245 1365 dumps all object info to Pd console window.;
#X obj 20 1402 cnv 1 745 1 empty empty empty 17 7 0 10 -203890 -1 0
;
#X obj 20 1407 cnv 5 64 26 empty empty inlets: 4 10 0 14 -262144 -49933
0;
#X text 110 1408 1;
#X text 245 1408 first input harmonic/planewave.;
#X text 110 1428 ....;
#X text 245 1428 ... input harmonic/planewave.;
#X text 110 1448 n.;
#X text 245 1448 n-th input harmonic/planewave.;
#X obj 20 1478 cnv 1 745 1 empty empty empty 17 7 0 10 -203890 -1 0
;
#X obj 20 1483 cnv 5 73 26 empty empty outlets: 4 10 0 14 -262144 -49933
0;
#X text 110 1484 1;
#X text 245 1484 first harmonic/planewave output.;
#X text 110 1504 ....;
#X text 245 1504 ... harmonic/planewave output.;
#X text 110 1524 n.;
#X text 245 1524 n-th harmonic/planewave output.;
#X obj 1 1574 cnv 5 765 48 empty empty empty 17 7 0 10 -203890 -1 0
;
#X floatatom 282 227 5 0 0 0 - - -;
#X obj 88 397 hoa.scope~ @size 164 164 @receive "(null)" @send "(null)"
@pinned 0 @background_color 0.93 0.93 0.93 1 @border_color 0.6 0.6
0.6 1 @label_color 0 0 0 1 @ph_color 1 0 0 1 @nh_color 0 0 1 1 @fontname
"Helvetica" @fontweight "normal" @fontslant "roman" @fontsize 11 @label
"(null)" @label_inner 0 @label_side "top" @label_align "left" @label_valign
"top" @label_margins 0 0 @gain 4 @refresh 100 @order 1 @view 0;
#X obj 50 628 dac~, f 35;
#X obj 50 314 hoa.encoder~ 1, f 33;
#X obj 50 340 hoa.process~ 3 hoa/hoa.fx.gain~ planewaves, f 35;
#X obj 50 570 hoa.recomposer~ 1 3, f 35;
#X obj 50 599 hoa.decoder~ 1 binaural @crop 32, f 35;
#X obj 33 103 declare -lib ceammc;
#X msg 682 155 1 45;
#X msg 688 112 rotate 45;
#X obj 715 191 ui.polar @size 100 100 @receive "(null)" @send "(null)"
@pinned 0 @presetname "ui.polar.0" @mouse_events 0 @background_color
0.93 0.93 0.93 1 @border_color 0.6 0.6 0.6 1 @label_color 0 0 0 1 @fontname
"Helvetica" @fontweight "normal" @fontslant "roman" @fontsize 11 @label
"(null)" @label_inner 0 @label_side "top" @label_align "left" @label_valign
"top" @label_margins 0 0 @clockwise 1 @radians 0 @positive 0 @direction
"N";
#X msg 888 166 clear;
#X msg 890 247 dump;
#X msg 888 196 store 0;
#X msg 971 200 store 1;
#X msg 971 222 load 1;
#X msg 891 222 load 0;
#X floatatom 1140 154 5 -360 360 0 - - -;
#X obj 1139 178 msg @angle;
#X floatatom 1140 104 5 -1 1 0 - - -;
#X obj 1140 129 msg @radius;
#X obj 964 303 msg @radians;
#X obj 965 284 tgl 15 0 empty empty empty 17 7 0 10 -262144 -1 -1 0
1;
#X msg 830 136 cartesian -0.4 0.7;
#X floatatom 823 85 5 -1 1 0 - - -;
#X obj 715 302 unpack 0 0;
#X floatatom 709 331 5 -1 1 0 - - -;
#X floatatom 786 331 5 -1 1 0 - - -;
#X obj 824 107 msg cartesian x;
#X obj 1066 151 * 100;
#X obj 1075 198 + 100;
#X connect 1 0 4 0;
#X connect 2 0 5 0;
#X connect 3 0 6 0;
#X connect 4 0 71 0;
#X connect 5 0 71 1;
#X connect 6 0 72 3;
#X connect 10 0 12 0;
#X connect 11 0 12 0;
#X connect 12 0 13 0;
#X connect 13 0 15 0;
#X connect 13 1 14 0;
#X connect 14 0 13 1;
#X connect 15 0 16 1;
#X connect 16 0 17 0;
#X connect 16 1 17 1;
#X connect 16 2 17 2;
#X connect 16 3 17 3;
#X connect 16 4 17 4;
#X connect 16 5 17 5;
#X connect 16 6 17 6;
#X connect 16 7 17 7;
#X connect 16 8 17 8;
#X connect 16 9 17 9;
#X connect 16 10 17 10;
#X connect 17 0 18 0;
#X connect 17 1 18 1;
#X connect 18 0 19 0;
#X connect 18 1 19 1;
#X connect 68 0 2 0;
#X connect 71 0 72 0;
#X connect 71 1 72 1;
#X connect 71 2 72 2;
#X connect 72 0 69 0;
#X connect 72 0 73 0;
#X connect 72 1 69 1;
#X connect 72 1 73 1;
#X connect 72 2 69 2;
#X connect 72 2 73 2;
#X connect 73 0 74 0;
#X connect 73 1 74 1;
#X connect 73 2 74 2;
#X connect 74 0 70 0;
#X connect 74 1 70 1;
#X connect 76 0 78 0;
#X connect 77 0 78 0;
#X connect 78 0 93 0;
#X connect 79 0 78 0;
#X connect 80 0 78 0;
#X connect 81 0 78 0;
#X connect 82 0 78 0;
#X connect 83 0 78 0;
#X connect 84 0 78 0;
#X connect 85 0 86 0;
#X connect 86 0 78 0;
#X connect 87 0 88 0;
#X connect 87 0 97 0;
#X connect 88 0 78 0;
#X connect 89 0 78 0;
#X connect 90 0 89 0;
#X connect 91 0 78 0;
#X connect 92 0 96 0;
#X connect 93 0 94 0;
#X connect 93 1 95 0;
#X connect 96 0 78 0;
#X connect 97 0 98 0;
#X connect 98 0 85 0;
