#N canvas 181 24 669 712 12;
#N canvas 161 37 1132 841 (subpatch) 1;
#N canvas 0 23 450 300 (subpatch) 0;
#X array Player 5.00917e+06 float 2;
#X coords 0 1 5.00917e+06 -1 200 140 1 0 0;
#X restore 12 107 graph;
#X obj -366 -57 openpanel;
#X obj 19 14 bng 15 250 50 0 empty empty empty 0 -6 0 8 -262144 -1
-1;
#X obj -366 -5 soundfiler;
#X obj -366 33 expr 44100 / $f1;
#X floatatom -366 193 5 0 0 0 - - -;
#X obj -366 288 phasor~;
#X obj 10 255 hsl 200 15 0 1 0 0 empty empty empty -2 -6 0 8 -262144
-1 -1 7872 1;
#X obj -424 722 line~;
#X msg -424 696 \$1 20;
#X floatatom -424 669 5 0 1 0 - - -;
#X obj -459 750 *~;
#X obj -458 782 hip~ 5;
#X obj -458 812 dac~;
#X obj -366 261 *;
#X obj -555 145 hsl 128 15 -10 10 0 0 empty empty empty -2 -6 0 8 -262144
-1 -1 6985 1;
#X obj 10 73 hsl 200 15 0 1 0 0 empty empty empty -2 -6 0 8 -262144
-1 -1 16500 1;
#X obj 10 39 hsl 200 15 0 1 0 0 empty empty empty -2 -6 0 8 -262144
-1 -1 0 1;
#X obj -366 482 +~;
#X obj -202 174 -;
#X floatatom -202 140 5 0 0 0 - - -;
#X obj -134 136 t f b;
#X obj -366 549 *~;
#X obj -336 72 expr 1 / $f1;
#X obj -336 123 *;
#X obj -288 433 unsig~ 20;
#X text 5 286 slider shows playing position;
#X text -193 223 difference of both (;
#X text -196 242 always calculated \, not;
#X text -197 285 input on the left);
#X text -368 668 volume;
#X obj -329 161 t b f;
#X obj -366 352 *~;
#X text -200 259 only if there is an;
#X text -559 121 playback speed;
#X floatatom -757 77 5 0 1e+06 2 Durée_grain_(ms) - -;
#X obj -758 164 expr 1000 / $f1;
#X obj -501 297 -~ 0.5;
#X obj -501 322 *~ 0.5;
#X obj -501 351 cos~;
#X obj -758 189 phasor~;
#X obj -459 633 *~;
#X msg -828 59 100;
#X obj -828 34 loadbang;
#X obj -517 516 *~;
#X obj -854 402 noise~;
#X obj -657 500 >~;
#X obj -854 433 samphold~ 0.01;
#X obj -705 389 loadbang;
#X obj -636 436 hsl 128 15 0 1 0 0 empty empty Raréfaction -2 -8 0
10 -257985 -1 -1 3900 1;
#X obj -854 457 +~ 1;
#X obj -854 481 *~ 0.5;
#X msg -705 414 0;
#X floatatom -639 456 5 0 0 0 - - -;
#X obj -757 -75 inlet;
#X obj -638 -71 inlet;
#X obj 4 -79 inlet;
#X obj 55 -80 inlet;
#X obj -424 -70 inlet;
#X obj -558 -74 inlet;
#X text 42 11 Load sound file;
#X text -394 -146 Granulator Multiposition Player;
#X floatatom -545 176 5 -10 10 0 - - -;
#X text 3 51 |left limit;
#X text 128 56 right limit|;
#X obj -465 56 loadbang;
#X msg -465 81 1;
#X msg -366 -31 read -resize \$1 Player;
#X obj -366 587 tabread4~ Player;
#X connect 1 0 67 0;
#X connect 2 0 1 0;
#X connect 3 0 4 0;
#X connect 3 0 22 1;
#X connect 4 0 24 1;
#X connect 5 0 14 0;
#X connect 6 0 32 0;
#X connect 8 0 11 1;
#X connect 9 0 8 0;
#X connect 10 0 9 0;
#X connect 11 0 12 0;
#X connect 12 0 13 0;
#X connect 12 0 13 1;
#X connect 14 0 6 0;
#X connect 15 0 31 0;
#X connect 15 0 62 0;
#X connect 16 0 20 0;
#X connect 17 0 21 0;
#X connect 18 0 25 0;
#X connect 18 0 22 0;
#X connect 19 0 23 0;
#X connect 19 0 32 1;
#X connect 20 0 19 0;
#X connect 21 0 19 1;
#X connect 21 0 18 1;
#X connect 21 1 20 0;
#X connect 22 0 68 0;
#X connect 23 0 24 0;
#X connect 24 0 5 0;
#X connect 25 0 7 0;
#X connect 31 0 5 0;
#X connect 31 1 14 1;
#X connect 32 0 18 0;
#X connect 35 0 36 0;
#X connect 36 0 40 0;
#X connect 37 0 38 0;
#X connect 38 0 39 0;
#X connect 39 0 44 1;
#X connect 40 0 37 0;
#X connect 40 0 47 1;
#X connect 41 0 11 0;
#X connect 42 0 35 0;
#X connect 43 0 42 0;
#X connect 44 0 41 0;
#X connect 45 0 47 0;
#X connect 46 0 44 0;
#X connect 47 0 50 0;
#X connect 48 0 52 0;
#X connect 49 0 53 0;
#X connect 50 0 51 0;
#X connect 51 0 46 0;
#X connect 52 0 49 0;
#X connect 53 0 46 1;
#X connect 54 0 35 0;
#X connect 55 0 49 0;
#X connect 56 0 17 0;
#X connect 57 0 16 0;
#X connect 58 0 10 0;
#X connect 59 0 15 0;
#X connect 65 0 66 0;
#X connect 66 0 15 0;
#X connect 67 0 3 0;
#X connect 68 0 41 1;
#X coords 0 1 100 -1 220 280 1 0 0;
#X restore 10 -42 graph;
