#N canvas 0 23 637 466 12;
#N canvas 152 105 679 499 (subpatch) 0;
#N canvas 329 161 625 417 vu 0;
#X obj 59 129 env~ 1024;
#X obj 161 111 abs~;
#X obj 161 213 snapshot~;
#X obj 161 256 rmstodb;
#X obj 161 21 inlet~;
#X obj 161 288 - 100;
#X obj 59 287 - 100;
#X obj 59 361 outlet;
#X obj 161 361 outlet;
#X text 344 307 Check the help file of env~ and slop~ for more details.
, f 31;
#X obj 239 89 expr 1000 / $f1;
#X floatatom 239 117 5 0 0 0 - - -;
#X obj 161 146 slop~ 0 0 0 0 1e+09;
#X obj 239 18 inlet;
#X floatatom 239 57 5 0 0 0 - - -;
#X text 359 89 convert to hz;
#X text 282 118 hz;
#X text 284 57 peak decay time in ms;
#X obj 59 171 t f b;
#X text 345 132 The env~ object is dedicated to RMS analysis. Its output
is in dB (0-100 range \, pd style) but needs to be converted to dBFS
(and we do that by simply subtracting 100)., f 31;
#X text 345 225 The slop~ object is used here for peak detection. We
need to convert the output to dB with rmstodb and also subract by 100
to convert it to dBFS., f 31;
#X connect 0 0 18 0;
#X connect 1 0 12 0;
#X connect 2 0 3 0;
#X connect 3 0 5 0;
#X connect 4 0 0 0;
#X connect 4 0 1 0;
#X connect 5 0 8 0;
#X connect 6 0 7 0;
#X connect 10 0 11 0;
#X connect 11 0 12 3;
#X connect 12 0 2 0;
#X connect 13 0 14 0;
#X connect 14 0 10 0;
#X connect 18 0 6 0;
#X connect 18 1 2 0;
#X restore 392 73 pd vu;
#X obj 5 39 bng 15 250 50 0 empty empty open 17 7 0 10 -13330 -1 -1
;
#X obj 5 61 tgl 15 0 empty empty record 17 7 0 10 -262144 -1 -1 0 1
;
#X obj 598 -19 loadbang;
#X msg 598 4 55;
#X floatatom 598 29 5 0 0 0 - - -;
#X obj 342 54 *~;
#X msg 359 9 \$1 5;
#X obj 359 32 line~;
#X obj 61 31 vsl 10 80 0 1 0 0 empty empty empty -45 -16 0 10 -262144
-1 -1 0 1;
#X obj 342 -14 inlet~;
#N canvas 329 161 625 417 vu 0;
#X obj 59 129 env~ 1024;
#X obj 161 111 abs~;
#X obj 161 213 snapshot~;
#X obj 161 256 rmstodb;
#X obj 161 21 inlet~;
#X obj 161 288 - 100;
#X obj 59 287 - 100;
#X obj 59 361 outlet;
#X obj 161 361 outlet;
#X text 344 307 Check the help file of env~ and slop~ for more details.
, f 31;
#X obj 239 89 expr 1000 / $f1;
#X floatatom 239 117 5 0 0 0 - - -;
#X obj 161 146 slop~ 0 0 0 0 1e+09;
#X obj 239 18 inlet;
#X floatatom 239 57 5 0 0 0 - - -;
#X text 359 89 convert to hz;
#X text 282 118 hz;
#X text 284 57 peak decay time in ms;
#X obj 59 171 t f b;
#X text 345 132 The env~ object is dedicated to RMS analysis. Its output
is in dB (0-100 range \, pd style) but needs to be converted to dBFS
(and we do that by simply subtracting 100)., f 31;
#X text 345 225 The slop~ object is used here for peak detection. We
need to convert the output to dB with rmstodb and also subract by 100
to convert it to dBFS., f 31;
#X connect 0 0 18 0;
#X connect 1 0 12 0;
#X connect 2 0 3 0;
#X connect 3 0 5 0;
#X connect 4 0 0 0;
#X connect 4 0 1 0;
#X connect 5 0 8 0;
#X connect 6 0 7 0;
#X connect 10 0 11 0;
#X connect 11 0 12 3;
#X connect 12 0 2 0;
#X connect 13 0 14 0;
#X connect 14 0 10 0;
#X connect 18 0 6 0;
#X connect 18 1 2 0;
#X restore 499 65 pd vu;
#X obj 449 46 *~;
#X msg 466 1 \$1 5;
#X obj 466 24 line~;
#X obj 449 -22 inlet~;
#X obj 105 32 vu 10 80 empty empty -1 -8 0 10 -66577 -1 0 0;
#N canvas 0 23 715 298 rec 0;
#X obj 123 42 inlet;
#X obj 243 42 inlet;
#X obj 10 41 inlet~;
#X obj 243 128 list prepend set open;
#X obj 243 152 list trim;
#X msg 243 192 open /Users/laurentdibiase/Documents/Pd/Yaman-EnsembleVoix-ConsStDenis/Samples/test3.wav
;
#X obj 243 105 savepanel;
#X obj 123 120 select 0 1;
#X msg 123 174 stop;
#X obj 172 158 t b b;
#X msg 172 200 start;
#X obj 123 234 writesf~ 2;
#X obj 59 41 inlet~;
#X connect 0 0 7 0;
#X connect 1 0 6 0;
#X connect 2 0 11 0;
#X connect 3 0 4 0;
#X connect 4 0 5 0;
#X connect 5 0 11 0;
#X connect 6 0 3 0;
#X connect 7 0 8 0;
#X connect 7 1 9 0;
#X connect 8 0 11 0;
#X connect 9 0 10 0;
#X connect 9 1 5 0;
#X connect 10 0 11 0;
#X connect 12 0 11 1;
#X restore 342 126 pd rec -----;
#X text 3 1 REC-Binaural;
#X obj 86 32 vu 10 80 empty empty -1 -8 0 10 -66577 -1 0 0;
#X obj 216 94 env~;
#X floatatom 12 93 5 0 0 0 - - -;
#X connect 0 0 19 0;
#X connect 1 0 17 3;
#X connect 2 0 17 2;
#X connect 3 0 4 0;
#X connect 4 0 5 0;
#X connect 5 0 0 1;
#X connect 5 0 11 1;
#X connect 6 0 17 0;
#X connect 6 0 0 0;
#X connect 6 0 20 0;
#X connect 7 0 8 0;
#X connect 8 0 6 1;
#X connect 9 0 7 0;
#X connect 9 0 13 0;
#X connect 10 0 6 0;
#X connect 11 0 16 0;
#X connect 12 0 11 0;
#X connect 12 0 17 1;
#X connect 13 0 14 0;
#X connect 14 0 12 1;
#X connect 15 0 12 0;
#X connect 20 0 21 0;
#X coords 0 1 100 -1 120 120 1 0 0;
#X restore 106 84 graph;
