#N canvas 394 116 666 578 12;
#N canvas 303 64 765 483 (subpatch) 1;
#X obj 0 0 cnv 15 235 260 empty empty SFR-Granulator~ 55 250 0 12 -260097
-195568 0;
#X obj 35 41 vsl 15 128 0 100 0 0 \$0-density_randomness \$0-density_randomness_OSC
Density_Randomness(%) 0 -8 0 8 -98368 -1 -114752 0 1;
#X obj 16 32 vsl 15 128 1 20000 1 0 \$0-density \$0-density_OSC Density(Hz)
0 -8 0 8 -64 -1 -64 0 1;
#X obj 107 78 vsl 15 128 1 99 0 0 \$0-grain_length \$0-grain_length_OSC
Grain_Length(%) 0 -8 0 8 -259073 -1 -259073 0 1;
#X obj 89 69 vsl 15 128 0 3000 0 0 \$0-max_delay \$0-max_delay_OSC
Max_Delay(ms) 0 -8 0 8 -258049 -1 -258049 0 1;
#X obj 143 97 vsl 15 128 1 10 0 0 \$0-envelope_sharpness \$0-envelope_sharpness_OSC
Envelope_Sharpness 0 -8 0 8 -262081 -1 -262081 0 1;
#X obj 125 88 vsl 15 128 0 2 0 0 \$0-amplitude \$0-amplitude_OSC Amplitude
0 -8 0 8 -260417 -1 -257985 0 1;
#X obj 71 60 vsl 15 128 0 100 0 0 \$0-pitch_randomness \$0-pitch_randomness_OSC
Pitch_Randomness(%) 0 -8 0 8 -258071 -1 -258071 0 1;
#X obj 53 51 vsl 15 128 -200 500 0 0 \$0-pitch \$0-pitch_OSC Pitch(%)
0 -8 0 8 -184384 -1 -184384 0 1;
#X obj 208 22 bng 15 250 50 0 \$0-reset \$0-reset_OSC Reset 0 20 0
6 -24198 -1 -24198;
#X obj 161 107 vsl 15 128 0 1 0 0 \$0-stereo_spread \$0-stereo_spread_OSC
Stereo_Spread 0 -8 0 8 -171969 -1 -171969 0 1;
#X obj 225 255 cnv 5 10 5 empty empty R 2 -7 0 10 -258699 -62784 0
;
#X obj 386 63 inlet~;
#X obj 665 61 inlet;
#X obj 225 0 cnv 5 10 5 empty empty OSC -18 12 0 10 -258699 -62784
0;
#X obj 0 255 cnv 5 10 5 empty empty L 3 -7 0 10 -258699 -62784 0;
#X obj 1 0 cnv 5 10 5 empty empty In-L 3 10 0 10 -258699 -62784 0;
#N canvas 25 349 1375 272 OSC-control 0;
#X obj 8 8 inlet;
#X obj 256 182 s \$0-stereo_spread_OSC;
#X obj 225 206 s \$0-envelope_sharpness_OSC;
#X obj 195 229 s \$0-amplitude_OSC;
#X obj 164 252 s \$0-grain_length_OSC;
#X obj 134 275 s \$0-max_delay_OSC;
#X obj 103 297 s \$0-pitch_randomness_OSC;
#X obj 73 321 s \$0-pitch_OSC;
#X obj 42 344 s \$0-density_randomness_OSC;
#X obj 66 396 s \$0-density_OSC;
#X obj 286 160 s \$0-reset_OSC;
#X obj 345 116 s \$0-remove_voice_OSC;
#X obj 317 139 s \$0-add_voice_OSC;
#X obj 9 373 moses 0.34;
#X obj 9 30 OSCroute /density /density_randomness /pitch /pitch_randomness
/max_delay /grain_length /amplitude /envelope_sharpness /stereo_spread
/reset /add_voice /remove_voice /display;
#X obj 358 91 s \$0-display_OSC;
#X connect 0 0 14 0;
#X connect 13 1 9 0;
#X connect 14 0 13 0;
#X connect 14 1 8 0;
#X connect 14 2 7 0;
#X connect 14 3 6 0;
#X connect 14 4 5 0;
#X connect 14 5 4 0;
#X connect 14 6 3 0;
#X connect 14 7 2 0;
#X connect 14 8 1 0;
#X connect 14 9 10 0;
#X connect 14 10 12 0;
#X connect 14 11 11 0;
#X connect 14 12 15 0;
#X restore 665 84 pd OSC-control;
#X obj 384 465 outlet~;
#X obj 479 465 outlet~;
#N canvas 302 237 599 477 voices 0;
#X obj 274 415 outlet~;
#X obj 342 415 outlet~;
#X obj 96 18 inlet~;
#X obj 183 85 grainvoice~ 1 \$0;
#X obj 187 111 grainvoice~ 1 \$0;
#X obj 182 138 grainvoice~ 1 \$0;
#X obj 181 164 grainvoice~ 1 \$0;
#X obj 180 187 grainvoice~ 1 \$0;
#X obj 182 211 grainvoice~ 1 \$0;
#X obj 182 239 grainvoice~ 1 \$0;
#X obj 312 17 inlet~;
#X obj 399 84 grainvoice~ 1 \$0;
#X obj 403 110 grainvoice~ 1 \$0;
#X obj 398 137 grainvoice~ 1 \$0;
#X obj 397 163 grainvoice~ 1 \$0;
#X obj 396 186 grainvoice~ 1 \$0;
#X obj 398 210 grainvoice~ 1 \$0;
#X obj 398 238 grainvoice~ 1 \$0;
#X obj 274 327 st-spread~;
#X connect 2 0 3 0;
#X connect 2 0 4 0;
#X connect 2 0 5 0;
#X connect 2 0 6 0;
#X connect 2 0 7 0;
#X connect 2 0 8 0;
#X connect 2 0 9 0;
#X connect 3 0 18 0;
#X connect 4 0 18 0;
#X connect 5 0 18 0;
#X connect 6 0 18 0;
#X connect 7 0 18 0;
#X connect 8 0 18 0;
#X connect 9 0 18 0;
#X connect 10 0 11 0;
#X connect 10 0 12 0;
#X connect 10 0 13 0;
#X connect 10 0 14 0;
#X connect 10 0 15 0;
#X connect 10 0 16 0;
#X connect 10 0 17 0;
#X connect 11 0 18 1;
#X connect 12 0 18 1;
#X connect 13 0 18 1;
#X connect 14 0 18 1;
#X connect 15 0 18 1;
#X connect 16 0 18 1;
#X connect 17 0 18 1;
#X connect 18 0 0 0;
#X connect 18 1 1 0;
#X restore 470 169 pd voices;
#X obj 465 61 inlet~;
#X obj 112 0 cnv 5 10 5 empty empty IN-R 3 10 0 10 -258699 -62784 0
;
#X obj 209 195 tgl 15 0 empty bypass Bypass -10 25 0 10 -191407 -1
-191407 0 1;
#X msg 284 175 0;
#X msg 284 151 loadbang;
#X obj 180 118 vsl 15 128 0.01 1 0 0 empty empty Wet_Dry 0 -8 0 8 -262144
-1 -1 0 1;
#X floatatom 186 272 5 0 0 0 - - -;
#X obj 479 416 xfade~;
#X obj 383 417 xfade~;
#X msg 279 11 loadbang;
#X msg 279 35 0.5;
#X connect 12 0 20 0;
#X connect 12 0 29 1;
#X connect 12 0 28 1;
#X connect 13 0 17 0;
#X connect 20 0 29 0;
#X connect 20 1 28 0;
#X connect 21 0 20 1;
#X connect 23 0 26 0;
#X connect 24 0 23 0;
#X connect 25 0 24 0;
#X connect 26 0 27 0;
#X connect 27 0 28 2;
#X connect 27 0 29 2;
#X connect 28 0 19 0;
#X connect 29 0 18 0;
#X connect 30 0 31 0;
#X connect 31 0 8 0;
#X coords 0 1 100 -1 235 260 1 0 0;
#X restore 56 30 graph;
